<?xml version="1.0" encoding="UTF-8" standalone="no"?>
<!DOCTYPE svg PUBLIC "-//W3C//DTD SVG 1.1//EN" "http://www.w3.org/Graphics/SVG/1.1/DTD/svg11.dtd">
<svg width="100%" height="100%" viewBox="0 0 256 256" version="1.1" xmlns="http://www.w3.org/2000/svg" xmlns:xlink="http://www.w3.org/1999/xlink" xml:space="preserve" xmlns:serif="http://www.serif.com/" style="fill-rule:evenodd;clip-rule:evenodd;stroke-linecap:round;stroke-linejoin:round;stroke-miterlimit:1.5;">
    <g transform="matrix(2,0,0,2,0,0)">
        <g transform="matrix(1,0,0,1,1,1)">
            <g transform="matrix(1.91195,0,0,2.13836,-15.3442,-23.6732)">
                <path d="M14.592,16.957L36.186,16.957" style="fill:none;stroke:url(#_Linear1);stroke-width:2.53px;"/>
            </g>
            <g transform="matrix(1.49686,0,0,2.13836,-9.28722,-12.8764)">
                <path d="M14.592,16.957L36.186,16.957" style="fill:none;stroke:url(#_Linear2);stroke-width:2.78px;"/>
            </g>
            <g transform="matrix(1.04403,0,0,2.13836,-2.67955,-2.07958)">
                <path d="M14.592,16.957L36.186,16.957" style="fill:none;stroke:url(#_Linear3);stroke-width:3.05px;"/>
            </g>
        </g>
        <g transform="matrix(1,0,0,1,1,82.2336)">
            <g transform="matrix(1.91195,0,0,2.13836,-15.3442,-23.6732)">
                <path d="M14.592,16.957L36.186,16.957" style="fill:none;stroke:url(#_Linear4);stroke-width:2.53px;"/>
            </g>
            <g transform="matrix(1.49686,0,0,2.13836,-9.28722,-12.8764)">
                <path d="M14.592,16.957L36.186,16.957" style="fill:none;stroke:url(#_Linear5);stroke-width:2.78px;"/>
            </g>
            <g transform="matrix(1.04403,0,0,2.13836,-2.67955,-2.07958)">
                <path d="M14.592,16.957L36.186,16.957" style="fill:none;stroke:url(#_Linear6);stroke-width:3.05px;"/>
            </g>
        </g>
        <g transform="matrix(-1,0,0,1,129,41.6168)">
            <g transform="matrix(1.91195,0,0,2.13836,-15.3442,-23.6732)">
                <path d="M14.592,16.957L36.186,16.957" style="fill:none;stroke:url(#_Linear7);stroke-width:2.53px;"/>
            </g>
            <g transform="matrix(1.49686,0,0,2.13836,-9.28722,-12.8764)">
                <path d="M14.592,16.957L36.186,16.957" style="fill:none;stroke:url(#_Linear8);stroke-width:2.78px;"/>
            </g>
            <g transform="matrix(1.04403,0,0,2.13836,-2.67955,-2.07958)">
                <path d="M14.592,16.957L36.186,16.957" style="fill:none;stroke:url(#_Linear9);stroke-width:3.05px;"/>
            </g>
        </g>
    </g>
    <defs>
        <linearGradient id="_Linear1" x1="0" y1="0" x2="1" y2="0" gradientUnits="userSpaceOnUse" gradientTransform="matrix(100.944,11.2235,-12.5526,90.2559,12.2097,41.0001)"><stop offset="0" style="stop-color:rgb(0,214,255);stop-opacity:1"/><stop offset="1" style="stop-color:rgb(0,61,255);stop-opacity:1"/></linearGradient>
        <linearGradient id="_Linear2" x1="0" y1="0" x2="1" y2="0" gradientUnits="userSpaceOnUse" gradientTransform="matrix(128.937,11.2235,-16.0336,90.2559,11.549,35.951)"><stop offset="0" style="stop-color:rgb(0,214,255);stop-opacity:1"/><stop offset="1" style="stop-color:rgb(0,61,255);stop-opacity:1"/></linearGradient>
        <linearGradient id="_Linear3" x1="0" y1="0" x2="1" y2="0" gradientUnits="userSpaceOnUse" gradientTransform="matrix(184.861,11.2235,-22.988,90.2559,10.2292,30.9019)"><stop offset="0" style="stop-color:rgb(0,214,255);stop-opacity:1"/><stop offset="1" style="stop-color:rgb(0,61,255);stop-opacity:1"/></linearGradient>
        <linearGradient id="_Linear4" x1="0" y1="0" x2="1" y2="0" gradientUnits="userSpaceOnUse" gradientTransform="matrix(100.944,11.2235,-12.5526,90.2559,12.2097,3.01147)"><stop offset="0" style="stop-color:rgb(0,214,255);stop-opacity:1"/><stop offset="1" style="stop-color:rgb(0,61,255);stop-opacity:1"/></linearGradient>
        <linearGradient id="_Linear5" x1="0" y1="0" x2="1" y2="0" gradientUnits="userSpaceOnUse" gradientTransform="matrix(128.937,11.2235,-16.0336,90.2559,11.549,-2.03762)"><stop offset="0" style="stop-color:rgb(0,214,255);stop-opacity:1"/><stop offset="1" style="stop-color:rgb(0,61,255);stop-opacity:1"/></linearGradient>
        <linearGradient id="_Linear6" x1="0" y1="0" x2="1" y2="0" gradientUnits="userSpaceOnUse" gradientTransform="matrix(184.861,11.2235,-22.988,90.2559,10.2292,-7.08672)"><stop offset="0" style="stop-color:rgb(0,214,255);stop-opacity:1"/><stop offset="1" style="stop-color:rgb(0,61,255);stop-opacity:1"/></linearGradient>
        <linearGradient id="_Linear7" x1="0" y1="0" x2="1" y2="0" gradientUnits="userSpaceOnUse" gradientTransform="matrix(-100.944,11.2235,12.5526,90.2559,70.7886,22.0058)"><stop offset="0" style="stop-color:rgb(0,214,255);stop-opacity:1"/><stop offset="1" style="stop-color:rgb(0,61,255);stop-opacity:1"/></linearGradient>
        <linearGradient id="_Linear8" x1="0" y1="0" x2="1" y2="0" gradientUnits="userSpaceOnUse" gradientTransform="matrix(-128.937,11.2235,16.0336,90.2559,86.3726,16.9567)"><stop offset="0" style="stop-color:rgb(0,214,255);stop-opacity:1"/><stop offset="1" style="stop-color:rgb(0,61,255);stop-opacity:1"/></linearGradient>
        <linearGradient id="_Linear9" x1="0" y1="0" x2="1" y2="0" gradientUnits="userSpaceOnUse" gradientTransform="matrix(-184.861,11.2235,22.988,90.2559,117.506,11.9076)"><stop offset="0" style="stop-color:rgb(0,214,255);stop-opacity:1"/><stop offset="1" style="stop-color:rgb(0,61,255);stop-opacity:1"/></linearGradient>
    </defs>
</svg>
